<?xml version="1.0" encoding="UTF-8" standalone="no"?>
<!DOCTYPE svg PUBLIC "-//W3C//DTD SVG 1.1//EN" "http://www.w3.org/Graphics/SVG/1.1/DTD/svg11.dtd">
<svg version="1.1" xmlns="http://www.w3.org/2000/svg" xmlns:xlink="http://www.w3.org/1999/xlink" preserveAspectRatio="xMidYMid meet" viewBox="12.448563482788625 233.72941176470587 618.7867306348587 172.9411764705882" width="614.79" height="168.94"><defs><path d="M314.26 376.75C309.74 368.56 304.66 358.78 299.76 349.27C297.88 345.6 295.91 341.84 294.02 338.35C284.8 320.66 277.18 306.54 271.34 296.28C268.33 290.92 262.49 286.12 256.38 287.81C253.46 288.56 248.47 291.39 248.47 301.36C248.47 310.75 248.47 385.82 248.47 395.2C248.47 395.2 261.84 394.45 261.84 379.95C261.84 365.46 261.84 306.92 261.84 306.92C267.2 316.61 274.07 329.32 282.07 344.66C283.95 348.24 285.84 351.91 287.72 355.58C293.55 366.87 299.58 378.45 304.66 387.48C307.29 392.19 312 396.33 317.18 396.33C318.02 396.33 318.78 396.24 319.62 396.05C322.54 395.29 327.53 392.47 327.53 382.49C327.53 373.09 327.53 297.87 327.53 288.47C327.62 288.47 314.26 288.94 314.26 301.18C314.26 313.51 314.26 361.64 314.26 376.75Z" id="a5GwEptAeR"></path><path d="M152.56 234.73C137.79 234.73 126.59 239.06 119.34 247.62C111.91 256.38 110.12 267.58 110.02 275.48C110 276.99 109.87 284.52 109.65 298.07L122.16 298.35C122.39 284.8 122.52 277.27 122.54 275.76C122.64 270.02 124.52 264.28 127.81 260.24C131.29 255.91 136.09 253.46 141.36 253.46C141.46 253.46 141.55 253.46 141.65 253.46C147.67 253.55 152.28 254.96 155.48 257.6C158.87 260.42 160.56 264.66 160.47 270.31C160.38 275.86 158.12 281.13 154.07 284.99C150.02 288.85 144.75 291.01 139.11 290.82C138.29 290.81 134.21 290.75 126.87 290.64L126.78 298.45C134.12 298.56 138.2 298.62 139.01 298.64C139.2 298.64 139.39 298.64 139.58 298.64C155.2 298.64 168.09 286.02 168.38 270.31C168.47 266.45 167.81 262.68 166.4 259.2C166.36 259.11 166.17 258.64 165.84 257.79C166.4 258.47 166.71 258.84 166.78 258.92C170.82 263.91 172.99 270.21 172.89 276.61C172.61 291.48 160.47 303.34 145.69 303.34C145.51 303.34 145.32 303.34 145.22 303.34C143.71 303.32 136.11 303.19 122.45 302.96L109.46 302.68C88.28 302.29 76.52 302.07 74.16 302.02C73.88 302.02 73.6 302.02 73.32 302.02C60.99 302.02 49.32 306.73 40.38 315.39C31.25 324.24 26.07 336.09 25.88 348.71C25.79 356.05 27.29 363.11 30.4 369.69C30.36 369.71 30.06 369.86 30.02 369.88C24.19 361.79 21.27 352.28 21.46 342.4C21.65 330.16 26.64 318.78 35.48 310.21C44.33 301.74 55.91 297.13 68.14 297.32C70.61 297.36 82.97 297.58 105.22 297.98L105.32 290.16C83.07 289.77 70.71 289.55 68.24 289.51C67.95 289.51 67.58 289.51 67.2 289.51C53.27 289.51 40 294.87 29.93 304.56C19.58 314.54 13.74 327.91 13.46 342.21C13.18 359.91 18.73 375.62 29.18 386.26C40.47 397.74 57.04 403.67 78.49 403.67C92.99 403.67 104 399.25 111.53 390.49C117.46 383.53 120.85 373.74 121.04 363.01C121.06 361.51 121.19 353.98 121.41 340.42L108.89 340.14C108.67 353.69 108.54 361.22 108.52 362.73C108.42 368.47 106.54 374.21 103.25 378.26C99.67 382.68 94.87 385.13 89.41 385.04C83.39 384.94 78.78 383.53 75.58 380.89C72.19 378.07 70.49 373.84 70.59 368.19C70.78 356.71 80.19 347.58 91.58 347.58C91.67 347.58 91.86 347.58 91.95 347.58C92.77 347.59 96.85 347.65 104.19 347.76L104.28 339.95C96.94 339.84 92.86 339.78 92.05 339.76C91.86 339.76 91.67 339.76 91.48 339.76C75.86 339.76 62.96 352.38 62.68 368.09C62.59 371.95 63.34 375.62 64.75 379.2C64.79 379.29 64.98 379.76 65.32 380.61C64.75 379.93 64.44 379.56 64.38 379.48C60.33 374.49 58.16 368.19 58.26 361.79C58.54 346.92 70.68 335.06 85.46 335.06C85.65 335.06 85.84 335.06 85.93 335.06C87.45 335.08 95.04 335.21 108.71 335.44L121.69 335.72C142.87 336.11 154.64 336.33 156.99 336.38C157.27 336.38 157.55 336.38 157.84 336.38C183.62 336.38 204.89 315.67 205.36 289.69C205.46 282.35 203.95 275.29 200.85 268.71C200.88 268.69 201.19 268.54 201.22 268.52C207.06 276.61 209.98 286.12 209.79 296C209.6 308.24 204.61 319.62 195.76 328.19C186.92 336.66 175.34 341.27 163.11 341.08C160.63 341.04 148.27 340.82 126.02 340.42L125.93 348.24C148.18 348.63 160.54 348.85 163.01 348.89C163.29 348.89 163.67 348.89 163.95 348.89C177.98 348.89 192.19 343.44 203.11 333.84C214.59 323.67 221.08 310.31 221.36 296.19C221.65 279.72 215.91 264.56 205.18 253.65C192.94 241.32 174.78 234.73 152.56 234.73ZM157.84 328.56C157.55 328.56 157.36 328.56 157.08 328.56C154.73 328.52 142.96 328.3 121.79 327.91L108.8 327.62C95.13 327.4 87.54 327.27 86.02 327.25C85.84 327.25 85.55 327.25 85.36 327.25C76.24 327.25 67.67 330.73 61.08 337.13C54.31 343.62 50.54 352.38 50.35 361.69C50.26 366.68 51.2 371.58 53.18 376.09C53.23 376.21 53.48 376.77 53.93 377.79C53.25 376.94 52.88 376.47 52.8 376.38C48.09 370.26 45.74 363.11 45.84 355.39C46.12 337.13 61.08 322.54 79.25 322.54C79.44 322.54 79.62 322.54 79.81 322.54C81.46 322.57 89.68 322.73 104.47 323.01L104.56 315.2C89.83 314.8 81.64 314.59 80 314.54C79.72 314.54 79.53 314.54 79.25 314.54C56.85 314.54 38.4 332.61 38.02 355.11C37.93 361.22 39.15 367.25 41.69 372.8C41.75 372.93 42.03 373.59 42.54 374.78C41.81 373.76 41.4 373.2 41.32 373.08C36.05 366.02 33.41 357.65 33.6 348.89C33.98 327.25 51.67 309.93 73.22 309.93C73.51 309.93 73.69 309.93 73.98 309.93C76.34 309.97 88.17 310.19 109.46 310.59L121.98 310.87L121.98 310.78L122.16 310.78C135.83 311 143.42 311.13 144.94 311.15C145.13 311.15 145.41 311.15 145.6 311.15C154.73 311.15 163.29 307.67 169.88 301.27C176.66 294.78 180.42 286.02 180.61 276.71C180.71 271.72 179.76 266.82 177.79 262.31C177.74 262.19 177.49 261.63 177.04 260.61C177.71 261.46 178.09 261.93 178.16 262.02C182.87 268.05 185.22 275.29 185.13 283.01C184.94 291.95 181.36 300.24 174.87 306.45C168.56 312.47 160.38 315.86 151.72 315.86C151.53 315.86 151.34 315.86 151.15 315.86C149.51 315.83 141.29 315.67 126.49 315.39L126.4 323.2C141.2 323.48 149.41 323.64 151.06 323.67C151.34 323.67 151.53 323.67 151.81 323.67C162.54 323.67 172.71 319.53 180.42 312.09C188.33 304.47 192.85 294.12 193.04 283.11C193.13 276.99 191.91 270.96 189.36 265.41C189.31 265.28 189.03 264.62 188.52 263.44C189.31 264.45 189.75 265.02 189.84 265.13C195.01 272.19 197.74 280.56 197.55 289.32C197.08 311.25 179.39 328.56 157.84 328.56Z" id="b34vEZXepm"></path><path d="M346.45 359.62C346.45 379.2 362.35 395.11 381.93 395.11C401.51 395.11 417.41 379.2 417.41 359.62C417.41 340.05 401.51 324.14 381.93 324.14C362.35 324.14 346.45 340.05 346.45 359.62ZM359.81 359.62C359.81 347.39 369.69 337.51 381.93 337.51C394.16 337.51 404.05 347.39 404.05 359.62C403.95 371.76 394.07 381.74 381.93 381.74C369.69 381.74 359.81 371.86 359.81 359.62Z" id="d1HmwfgJvM"></path><path d="M122.16 323.76L122.26 315.11L108.89 314.82L108.71 323.39L122.16 323.76Z" id="h3XgtlGOL"></path><path d="M492.89 320.66L492.89 323.86C492.89 331.37 492.89 335.54 492.89 336.38C486.4 328.85 476.8 324.14 466.07 324.14C446.49 324.14 430.59 340.05 430.59 359.62C430.59 379.2 446.49 395.11 466.07 395.11C476.8 395.11 486.31 390.4 492.89 382.87C492.89 383.25 492.89 383.53 492.89 383.81C492.89 397.36 506.26 397.18 506.26 397.18C506.26 396.24 506.26 391.53 506.26 383.06L506.26 362.16L506.26 343.25L506.26 339.76C506.26 339.6 506.26 339.5 506.26 339.48C506.26 338.64 506.26 335.25 506.26 323.76C506.26 322.73 506.26 321.69 506.26 320.56C506.26 317.08 506.26 313.88 506.26 311.06C506.26 310.87 506.26 310.59 506.26 310.4C506.26 306.54 506.26 303.25 506.26 301.18C506.26 287.62 492.89 287.81 492.89 287.81C492.89 292.19 492.89 303.14 492.89 320.66ZM443.95 359.62C443.95 347.39 453.84 337.51 466.07 337.51C478.31 337.51 488.19 347.39 488.19 359.62C488.19 371.76 478.21 381.74 466.07 381.74C453.84 381.74 443.95 371.86 443.95 359.62Z" id="aAG5AGe1L"></path><path d="M628.24 357.36C628.24 337.79 612.33 321.88 592.75 321.88C573.18 321.88 557.27 337.79 557.27 357.36C557.27 376.94 573.18 392.85 592.75 392.85C602.54 392.85 611.39 388.89 617.88 382.4C616.93 381.45 609.33 373.84 608.38 372.89C604.42 376.85 598.87 379.39 592.75 379.39C582.87 379.39 574.49 372.89 571.67 363.95C575.44 363.95 594.3 363.95 628.24 363.95L628.24 357.36L628.24 357.36C628.24 357.36 628.24 357.36 628.24 357.36ZM613.84 350.68C609.62 350.68 575.89 350.68 571.67 350.68C574.49 341.74 582.87 335.25 592.75 335.25C602.64 335.25 611.01 341.74 613.84 350.68Z" id="c8fcY8OHJ"></path><path d="M529.69 320.66C529.69 345.56 529.69 359.4 529.69 362.16C529.69 370.64 529.69 380.14 529.69 383.81C529.69 397.36 543.06 397.18 543.06 397.18C543.06 393.67 543.06 365.58 543.06 362.07C543.06 362.07 543.06 343.34 543.06 320.56C543.06 312.09 543.06 304.85 543.06 301.18C543.06 287.62 529.69 287.81 529.69 287.81C529.69 292.19 529.69 303.14 529.69 320.66Z" id="a1BUgIPT8g"></path></defs><g><g><use xlink:href="#a5GwEptAeR" opacity="1" fill="#1db989" fill-opacity="1"></use><g><use xlink:href="#a5GwEptAeR" opacity="1" fill-opacity="0" stroke="#000000" stroke-width="1" stroke-opacity="0"></use></g></g><g><use xlink:href="#b34vEZXepm" opacity="1" fill="#1db989" fill-opacity="1"></use><g><use xlink:href="#b34vEZXepm" opacity="1" fill-opacity="0" stroke="#000000" stroke-width="1" stroke-opacity="0"></use></g></g><g><use xlink:href="#d1HmwfgJvM" opacity="1" fill="#1db989" fill-opacity="1"></use><g><use xlink:href="#d1HmwfgJvM" opacity="1" fill-opacity="0" stroke="#000000" stroke-width="1" stroke-opacity="0"></use></g></g><g><use xlink:href="#h3XgtlGOL" opacity="1" fill="#1db989" fill-opacity="1"></use><g><use xlink:href="#h3XgtlGOL" opacity="1" fill-opacity="0" stroke="#000000" stroke-width="1" stroke-opacity="0"></use></g></g><g><use xlink:href="#aAG5AGe1L" opacity="1" fill="#1db989" fill-opacity="1"></use><g><use xlink:href="#aAG5AGe1L" opacity="1" fill-opacity="0" stroke="#000000" stroke-width="1" stroke-opacity="0"></use></g></g><g><use xlink:href="#c8fcY8OHJ" opacity="1" fill="#1db989" fill-opacity="1"></use><g><use xlink:href="#c8fcY8OHJ" opacity="1" fill-opacity="0" stroke="#000000" stroke-width="1" stroke-opacity="0"></use></g></g><g><use xlink:href="#a1BUgIPT8g" opacity="1" fill="#1db989" fill-opacity="1"></use><g><use xlink:href="#a1BUgIPT8g" opacity="1" fill-opacity="0" stroke="#000000" stroke-width="1" stroke-opacity="0"></use></g></g></g></svg>